<?xml version="1.0" encoding="utf-8"?>
<!-- Generator: Adobe Illustrator 27.7.0, SVG Export Plug-In . SVG Version: 6.00 Build 0)  -->
<svg version="1.1" id="Capa_1" xmlns="http://www.w3.org/2000/svg" xmlns:xlink="http://www.w3.org/1999/xlink" x="0px" y="0px"
	 viewBox="0 0 155 20" style="enable-background:new 0 0 155 20;" xml:space="preserve">
<style type="text/css">
	.st0{fill:#FFFFFF;}
</style>
<polygon class="st0" points="14.08,15.1 21.23,19.05 30.41,19.05 23.79,15.1 33.32,11.44 33.2,1.91 8.1,12.19 7.98,11.15 
	18.85,6.56 18.85,1.85 11.64,5.28 11.64,1.91 9.2,3.01 9.2,6.21 2.05,9.29 2.05,19.05 27.28,8.07 27.28,9.29 "/>
<g>
	<path class="st0" d="M44.86,18.13c-0.85-0.38-1.55-0.92-2.09-1.62l1.93-2.32c0.82,1.1,1.74,1.65,2.79,1.65
		c1.42,0,2.12-0.83,2.12-2.49V6.22h-3.04V3.43h6.49v9.74c0,1.84-0.46,3.23-1.37,4.15c-0.92,0.92-2.26,1.38-4.03,1.38
		C46.65,18.7,45.71,18.51,44.86,18.13z"/>
	<path class="st0" d="M58.16,16.92c-1.19-1.19-1.79-2.88-1.79-5.08V3.43h3.48v8.28c0,2.69,1.12,4.03,3.35,4.03
		c1.09,0,1.92-0.33,2.49-0.98c0.57-0.65,0.86-1.67,0.86-3.06V3.43h3.43v8.41c0,2.2-0.6,3.9-1.79,5.08
		c-1.19,1.19-2.86,1.78-5.01,1.78C61.02,18.7,59.35,18.11,58.16,16.92z"/>
	<path class="st0" d="M82.97,18.44l-2.9-4.18H79.9h-3.02v4.18H73.4V3.43h6.5c1.33,0,2.48,0.22,3.46,0.66
		c0.98,0.44,1.73,1.07,2.26,1.89c0.53,0.82,0.79,1.78,0.79,2.9c0,1.12-0.27,2.08-0.8,2.89c-0.54,0.81-1.3,1.43-2.28,1.86l3.37,4.83
		H82.97z M82.09,6.94c-0.54-0.45-1.34-0.68-2.38-0.68h-2.83v5.23h2.83c1.04,0,1.84-0.23,2.38-0.69c0.54-0.46,0.82-1.1,0.82-1.93
		C82.9,8.03,82.63,7.39,82.09,6.94z"/>
	<path class="st0" d="M90.76,0.95h3.53l-1.65,1.62h-3.48L90.76,0.95z M89.17,3.43h3.48v15.02h-3.48V3.43z"/>
	<path class="st0" d="M96.2,3.43h6.82c1.63,0,3.07,0.31,4.32,0.93c1.25,0.62,2.22,1.5,2.92,2.63c0.69,1.13,1.04,2.45,1.04,3.95
		c0,1.5-0.35,2.82-1.04,3.95c-0.69,1.13-1.67,2.01-2.92,2.63c-1.25,0.62-2.69,0.93-4.32,0.93H96.2V3.43z M102.85,15.59
		c1.5,0,2.7-0.42,3.59-1.25s1.34-1.97,1.34-3.4c0-1.43-0.45-2.56-1.34-3.4c-0.89-0.84-2.09-1.25-3.59-1.25h-3.17v9.31H102.85z"/>
	<path class="st0" d="M113.92,3.43h3.48v15.02h-3.48V3.43z"/>
	<path class="st0" d="M123.99,17.7c-1.24-0.67-2.21-1.59-2.92-2.77s-1.06-2.51-1.06-4c0-1.49,0.35-2.82,1.06-4s1.68-2.1,2.92-2.77
		c1.24-0.66,2.63-1,4.17-1c1.3,0,2.48,0.23,3.53,0.69c1.05,0.46,1.93,1.12,2.65,1.97l-2.23,2.06c-1.02-1.17-2.27-1.76-3.78-1.76
		c-0.93,0-1.76,0.2-2.49,0.61s-1.3,0.98-1.71,1.71s-0.61,1.56-0.61,2.49c0,0.93,0.2,1.76,0.61,2.49s0.98,1.3,1.71,1.71
		s1.56,0.61,2.49,0.61c1.5,0,2.76-0.59,3.78-1.78l2.23,2.06c-0.72,0.87-1.6,1.54-2.66,1.99c-1.06,0.46-2.24,0.69-3.54,0.69
		C126.61,18.7,125.23,18.37,123.99,17.7z"/>
	<path class="st0" d="M151.84,11.01c0.7,0.77,1.05,1.71,1.05,2.84c0,0.87-0.23,1.68-0.69,2.41c-0.46,0.74-1.15,1.33-2.09,1.77
		c-0.94,0.44-2.08,0.66-3.44,0.66c-1.06,0-2.1-0.14-3.12-0.42c-1.02-0.28-1.89-0.68-2.61-1.19l1.35-2.66c0.57,0.43,1.23,0.76,1.98,1
		c0.75,0.24,1.52,0.35,2.31,0.35c0.87,0,1.56-0.17,2.06-0.5c0.5-0.34,0.75-0.81,0.75-1.43c0-1.23-0.94-1.84-2.81-1.84H145v-2.3
		l3.09-3.5h-6.39V3.43h10.51v2.25l-3.39,3.86C150.13,9.76,151.14,10.25,151.84,11.01z"/>
</g>
</svg>
